<svg xmlns="http://www.w3.org/2000/svg" style="height: 128px; width: 128px;" height="128" id="S_Illu_404_Inaccessible_128" width="128" class="spectrum-IllustratedMessage-illustration" aria-hidden="true">
    <defs>
        <style>
            .cls-1{
                fill:#b2b2b2
            }
        </style>
    </defs>
    <path class="cls-1" d="M63.5 127.074a2.992 2.992 0 002.122-.879l8.829-8.829a1.5 1.5 0 00-2.121-2.121L65 122.572V85.5a1.5 1.5 0 00-3 0v37.075l-7.327-7.327a1.5 1.5 0 00-2.122 2.121l8.826 8.826a2.992 2.992 0 002.122.879z"/>
    <path class="cls-1" d="M58.559 3H52.8a1.457 1.457 0 000 2.914h5.758a1.457 1.457 0 000-2.914zM46.881 3h-5.737a1.457 1.457 0 000 2.914h5.737a1.457 1.457 0 100-2.914zM35.225 3h-5.468a1.457 1.457 0 000 2.914h5.468a1.457 1.457 0 100-2.914zM25.207 5.239a1.459 1.459 0 00-1.224.66 4.736 4.736 0 00-.895 2.635l-.034 3.023a1.458 1.458 0 002.915 0V9.049a2.889 2.889 0 01.46-1.565A1.458 1.458 0 0026 5.472a1.435 1.435 0 00-.793-.233zm-.7 11.689a1.456 1.456 0 00-1.458 1.457v5.829a1.458 1.458 0 002.915 0v-5.829a1.459 1.459 0 00-1.452-1.457zm0 11.657a1.456 1.456 0 00-1.458 1.457v5.829a1.458 1.458 0 002.915 0v-5.829a1.459 1.459 0 00-1.452-1.457zm0 11.658a1.456 1.456 0 00-1.453 1.457v4.828a1.458 1.458 0 002.915 0V41.7a1.458 1.458 0 00-1.457-1.457zm0 10.657a1.456 1.456 0 00-1.458 1.457v4.828a1.458 1.458 0 102.915 0v-4.828a1.458 1.458 0 00-1.452-1.457zm0 10.657a1.456 1.456 0 00-1.458 1.457v5.828a1.458 1.458 0 102.915 0v-5.828a1.458 1.458 0 00-1.452-1.457zm0 11.657a1.456 1.456 0 00-1.458 1.457V80.5a1.458 1.458 0 002.915 0v-5.829a1.459 1.459 0 00-1.452-1.457zm0 11.657a1.456 1.456 0 00-1.458 1.457v4.829a1.458 1.458 0 002.915 0v-4.829a1.459 1.459 0 00-1.452-1.457zm0 10.657a1.456 1.456 0 00-1.458 1.457 4.531 4.531 0 00.052 1.072 7.245 7.245 0 001.606 3.57 2.367 2.367 0 001.564.726 1.46 1.46 0 00.877-2.627 2.89 2.89 0 01-1.184-2.334v-.407a1.459 1.459 0 00-1.452-1.457zm11.444 4.542h-4.824a1.457 1.457 0 000 2.914h4.829a1.457 1.457 0 000-2.914zm11.657 0h-5.824a1.457 1.457 0 000 2.914h5.829a1.457 1.457 0 000-2.914zm9.657 0h-3.824a1.457 1.457 0 000 2.914h3.829a1.457 1.457 0 000-2.914zm15.678 0H70.1a1.457 1.457 0 100 2.914h2.849a1.457 1.457 0 000-2.914zm11.657 0h-5.824a1.457 1.457 0 000 2.914h5.829a1.457 1.457 0 000-2.914zm10.657 0h-4.823a1.457 1.457 0 100 2.914h4.828a1.457 1.457 0 000-2.914zm8.184-4.585a1.46 1.46 0 00-1.423 1.156 2.948 2.948 0 01-1.833 2.12 1.459 1.459 0 00.518 2.823 1.477 1.477 0 00.512-.094 5.857 5.857 0 002.033-1.3l.028-.028.026-.025.054-.058.022-.026a5.834 5.834 0 001.492-2.806 1.46 1.46 0 00-1.122-1.724 1.411 1.411 0 00-.302-.038zm.1-10.341a1.456 1.456 0 00-1.457 1.457v4.829a1.457 1.457 0 102.914 0V86.6a1.459 1.459 0 00-1.455-1.456zm0-11.657a1.456 1.456 0 00-1.457 1.457v5.829a1.457 1.457 0 002.914 0v-5.829a1.459 1.459 0 00-1.455-1.457zm0-11.657a1.456 1.456 0 00-1.457 1.457v5.829a1.457 1.457 0 102.914 0v-5.829a1.459 1.459 0 00-1.455-1.457zm0-10.657a1.456 1.456 0 00-1.457 1.457v4.829a1.457 1.457 0 102.914 0V52.63a1.459 1.459 0 00-1.455-1.457zm0-10.657a1.455 1.455 0 00-1.457 1.457V46.8a1.457 1.457 0 102.914 0v-4.827a1.458 1.458 0 00-1.455-1.457zm-2.224-13.283a1.46 1.46 0 00-1.007 2.513l1.774 1.766v3.632a1.457 1.457 0 102.914 0v-3.681s-1.273-2.958-2.674-3.824a1.982 1.982 0 00-1.005-.406zM64.478 3a1.457 1.457 0 100 2.914h6.058a1.432 1.432 0 001.439-1.438 1.457 1.457 0 00-1.449-1.466zm28.251 15.635a1.458 1.458 0 000 2.061l4.122 4.121a1.457 1.457 0 002.061-2.06l-4.122-4.122a1.459 1.459 0 00-2.061 0zm-8.242-8.243a1.456 1.456 0 000 2.061l4.121 4.122a1.457 1.457 0 002.061-2.061l-4.122-4.122a1.458 1.458 0 00-2.06 0zm-9.137-6.4a1.46 1.46 0 001.065 2.489L78.5 6.47l1.861 1.862a1.457 1.457 0 102.061-2.061 16.113 16.113 0 00-2.039-2.224 5.518 5.518 0 00-4.037-.486 1.986 1.986 0 00-.996.426zM44.613 75.07h-4.829a1.457 1.457 0 000 2.914h4.829a1.457 1.457 0 000-2.914zm10.657 0h-4.829a1.457 1.457 0 000 2.914h4.829a1.457 1.457 0 000-2.914zm10.678 0H61.1a1.457 1.457 0 100 2.914h4.849a1.457 1.457 0 000-2.914zm10.657 0h-4.829a1.457 1.457 0 000 2.914h4.829a1.457 1.457 0 000-2.914zm10.657 0h-4.828a1.457 1.457 0 100 2.914h4.828a1.457 1.457 0 000-2.914zm-42.649 12h-4.829a1.457 1.457 0 000 2.914h4.829a1.457 1.457 0 000-2.914zm10.657 0h-4.829a1.457 1.457 0 000 2.914h4.829a1.457 1.457 0 000-2.914zm21.335 0h-4.829a1.457 1.457 0 000 2.914h4.829a1.457 1.457 0 000-2.914zm10.657 0h-4.828a1.457 1.457 0 100 2.914h4.828a1.457 1.457 0 000-2.914z"/>
</svg>
